<svg width="65" height="20" viewBox="0 0 65 20" fill="none" xmlns="http://www.w3.org/2000/svg">
<g clip-path="url(#clip0)">
<path d="M0 0H8.03618V1.42823H4.72745V19.9952H3.33254V1.42823H0V0Z" fill="black"/>
<path d="M22.9849 3.78005V19.9952H21.5567V19.5192C21.5567 17.9529 20.7569 16.6627 19.1763 16.6627C17.5957 16.6627 16.7959 17.9386 16.7959 19.5192V19.9952H15.3677V3.78005C15.3677 2.77752 15.7659 1.81605 16.4748 1.10715C17.1837 0.398254 18.1452 0 19.1477 0C20.1503 0 21.1117 0.398254 21.8206 1.10715C22.5295 1.81605 22.9278 2.77752 22.9278 3.78005H22.9849ZM21.5567 4.25613C21.5567 2.68984 20.7569 1.39967 19.1763 1.39967C17.5957 1.39967 16.7959 2.67555 16.7959 4.25613V16.5627C17.491 15.7724 18.0289 15.2726 19.1763 15.2726C20.3236 15.2726 20.8473 15.7724 21.5567 16.5627V4.25613Z" fill="black"/>
<path d="M39.1241 19.9952H31.564V0H32.9922V18.567H39.1241V19.9952Z" fill="black"/>
<path d="M47.7031 19.9952V0H49.1314V19.9952H47.7031Z" fill="black"/>
<path d="M64.7749 3.78005V19.9952H63.3467V19.5192C63.3467 17.9529 62.5469 16.6627 60.9663 16.6627C59.3858 16.6627 58.5859 17.9386 58.5859 19.5192V19.9952H57.1577V3.78005C57.1577 2.77752 57.556 1.81605 58.2649 1.10715C58.9738 0.398254 59.9352 0 60.9378 0C61.9403 0 62.9018 0.398254 63.6107 1.10715C64.3196 1.81605 64.7178 2.77752 64.7178 3.78005H64.7749ZM63.3467 4.25613C63.3467 2.68984 62.5469 1.39967 60.9663 1.39967C59.3858 1.39967 58.5859 2.67555 58.5859 4.25613V16.5627C59.2763 15.7724 59.819 15.2726 60.9663 15.2726C62.1137 15.2726 62.6374 15.7724 63.3467 16.5627V4.25613Z" fill="black"/>
</g>
<defs>
<clipPath id="clip0">
<rect width="64.775" height="20" fill="white"/>
</clipPath>
</defs>
</svg>
