<svg width="300" height="28" viewBox="0 0 300 28" fill="none" xmlns="http://www.w3.org/2000/svg">
<path d="M0 0H11.1038V1.97342H6.53203V27.6279H4.60466V1.97342H0V0Z" fill="white"/>
<path d="M84.3837 5.223V27.6279H82.4103V26.9701C82.4103 24.8059 81.3052 23.0233 79.1212 23.0233C76.9373 23.0233 75.8322 24.7862 75.8322 26.9701V27.6279H73.8588V5.223C73.8588 3.83777 74.409 2.50928 75.3885 1.52978C76.368 0.550278 77.6965 0 79.0818 0C80.467 0 81.7955 0.550278 82.775 1.52978C83.7545 2.50928 84.3048 3.83777 84.3048 5.223H84.3837ZM82.4103 5.8808C82.4103 3.71662 81.3052 1.93396 79.1212 1.93396C76.9373 1.93396 75.8322 3.69688 75.8322 5.8808V22.8851C76.7926 21.7932 77.5359 21.1025 79.1212 21.1025C80.7065 21.1025 81.4301 21.7932 82.4103 22.8851V5.8808Z" fill="white"/>
<path d="M159.308 27.6279H148.862V0H150.835V25.6545H159.308V27.6279Z" fill="white"/>
<path d="M223.786 27.6279V0H225.76V27.6279H223.786Z" fill="white"/>
<path d="M300 5.223V27.6279H298.027V26.9701C298.027 24.8059 296.921 23.0233 294.738 23.0233C292.554 23.0233 291.449 24.7862 291.449 26.9701V27.6279H289.475V5.223C289.475 3.83777 290.025 2.50928 291.005 1.52978C291.984 0.550278 293.313 0 294.698 0C296.083 0 297.412 0.550278 298.391 1.52978C299.371 2.50928 299.921 3.83777 299.921 5.223H300ZM298.027 5.8808C298.027 3.71662 296.921 1.93396 294.738 1.93396C292.554 1.93396 291.449 3.69688 291.449 5.8808V22.8851C292.402 21.7932 293.152 21.1025 294.738 21.1025C296.323 21.1025 297.046 21.7932 298.027 22.8851V5.8808Z" fill="white"/>
</svg>
