<?xml version="1.0" encoding="utf-8"?><svg width="65" height="20" fill="none" xmlns="http://www.w3.org/2000/svg" viewBox="0 0 65 20"><g clip-path="url(#bclip0)" fill="#fff"><path d="M0 0h8.036v1.428H4.727v18.567H3.333V1.428H0V0zM22.985 3.78v16.215h-1.428v-.476c0-1.566-.8-2.856-2.38-2.856-1.581 0-2.381 1.276-2.381 2.856v.476h-1.428V3.78a3.78 3.78 0 117.56 0h.057zm-1.428.476c0-1.566-.8-2.856-2.38-2.856-1.581 0-2.381 1.276-2.381 2.856v12.307c.695-.79 1.233-1.29 2.38-1.29 1.148 0 1.671.5 2.38 1.29V4.256zM39.124 19.995h-7.56V0h1.428v18.567h6.132v1.428zM47.703 19.995V0h1.428v19.995h-1.428zM64.775 3.78v16.215h-1.428v-.476c0-1.566-.8-2.856-2.38-2.856-1.581 0-2.381 1.276-2.381 2.856v.476h-1.428V3.78a3.78 3.78 0 017.56 0h.057zm-1.428.476c0-1.566-.8-2.856-2.38-2.856-1.581 0-2.381 1.276-2.381 2.856v12.307c.69-.79 1.233-1.29 2.38-1.29 1.148 0 1.671.5 2.38 1.29V4.256z"/></g><defs><clipPath id="bclip0"><path fill="#fff" d="M0 0h64.775v20H0z"/></clipPath></defs></svg>