<?xml version="1.0" encoding="utf-8"?><svg width="300" height="28" fill="none" xmlns="http://www.w3.org/2000/svg" viewBox="0 0 300 28"><path d="M0 0h11.104v1.973H6.532v25.655H4.605V1.973H0V0zM84.384 5.223v22.405H82.41v-.658c0-2.164-1.105-3.947-3.289-3.947s-3.289 1.763-3.289 3.947v.658H73.86V5.223a5.223 5.223 0 1110.446 0h.079zm-1.974.658c0-2.164-1.105-3.947-3.289-3.947s-3.289 1.763-3.289 3.947v17.004c.96-1.092 1.704-1.783 3.29-1.783 1.585 0 2.308.691 3.288 1.783V5.881zM159.308 27.628h-10.446V0h1.973v25.654h8.473v1.974zM223.786 27.628V0h1.974v27.628h-1.974zM300 5.223v22.405h-1.973v-.658c0-2.164-1.106-3.947-3.289-3.947-2.184 0-3.289 1.763-3.289 3.947v.658h-1.974V5.223A5.221 5.221 0 01294.698 0a5.222 5.222 0 015.223 5.223H300zm-1.973.658c0-2.164-1.106-3.947-3.289-3.947-2.184 0-3.289 1.763-3.289 3.947v17.004c.953-1.092 1.703-1.783 3.289-1.783 1.585 0 2.308.691 3.289 1.783V5.881z" fill="#fff"/></svg>