<?xml version="1.0" encoding="utf-8"?><svg viewBox="0 0 300 28" xmlns="http://www.w3.org/2000/svg" xmlns:xlink="http://www.w3.org/1999/xlink"><style>:root>svg{display:none}:root>svg:target{display:block}</style><svg fill="none" viewBox="0 0 65 20" id="logo" xmlns="http://www.w3.org/2000/svg"><g clip-path="url(#aclip0)" fill="#000"><path d="M0 0h8.036v1.428H4.727v18.567H3.333V1.428H0V0zM22.985 3.78v16.215h-1.428v-.476c0-1.566-.8-2.856-2.38-2.856-1.581 0-2.381 1.276-2.381 2.856v.476h-1.428V3.78a3.78 3.78 0 117.56 0h.057zm-1.428.476c0-1.566-.8-2.856-2.38-2.856-1.581 0-2.381 1.276-2.381 2.856v12.307c.695-.79 1.233-1.29 2.38-1.29 1.148 0 1.671.5 2.38 1.29V4.256zM39.124 19.995h-7.56V0h1.428v18.567h6.132v1.428zM47.703 19.995V0h1.428v19.995h-1.428zM64.775 3.78v16.215h-1.428v-.476c0-1.566-.8-2.856-2.38-2.856-1.581 0-2.381 1.276-2.381 2.856v.476h-1.428V3.78a3.78 3.78 0 017.56 0h.057zm-1.428.476c0-1.566-.8-2.856-2.38-2.856-1.581 0-2.381 1.276-2.381 2.856v12.307c.69-.79 1.233-1.29 2.38-1.29 1.148 0 1.671.5 2.38 1.29V4.256z"/></g><defs><clipPath id="aclip0"><path fill="#fff" d="M0 0h64.775v20H0z"/></clipPath></defs></svg><svg fill="none" viewBox="0 0 65 20" id="logo_white" xmlns="http://www.w3.org/2000/svg"><g clip-path="url(#bclip0)" fill="#fff"><path d="M0 0h8.036v1.428H4.727v18.567H3.333V1.428H0V0zM22.985 3.78v16.215h-1.428v-.476c0-1.566-.8-2.856-2.38-2.856-1.581 0-2.381 1.276-2.381 2.856v.476h-1.428V3.78a3.78 3.78 0 117.56 0h.057zm-1.428.476c0-1.566-.8-2.856-2.38-2.856-1.581 0-2.381 1.276-2.381 2.856v12.307c.695-.79 1.233-1.29 2.38-1.29 1.148 0 1.671.5 2.38 1.29V4.256zM39.124 19.995h-7.56V0h1.428v18.567h6.132v1.428zM47.703 19.995V0h1.428v19.995h-1.428zM64.775 3.78v16.215h-1.428v-.476c0-1.566-.8-2.856-2.38-2.856-1.581 0-2.381 1.276-2.381 2.856v.476h-1.428V3.78a3.78 3.78 0 017.56 0h.057zm-1.428.476c0-1.566-.8-2.856-2.38-2.856-1.581 0-2.381 1.276-2.381 2.856v12.307c.69-.79 1.233-1.29 2.38-1.29 1.148 0 1.671.5 2.38 1.29V4.256z"/></g><defs><clipPath id="bclip0"><path fill="#fff" d="M0 0h64.775v20H0z"/></clipPath></defs></svg><svg fill="none" viewBox="0 0 300 28" id="preloader" xmlns="http://www.w3.org/2000/svg"><path d="M0 0h11.104v1.973H6.532v25.655H4.605V1.973H0V0zM84.384 5.223v22.405H82.41v-.658c0-2.164-1.105-3.947-3.289-3.947s-3.289 1.763-3.289 3.947v.658H73.86V5.223a5.223 5.223 0 1110.446 0h.079zm-1.974.658c0-2.164-1.105-3.947-3.289-3.947s-3.289 1.763-3.289 3.947v17.004c.96-1.092 1.704-1.783 3.29-1.783 1.585 0 2.308.691 3.288 1.783V5.881zM159.308 27.628h-10.446V0h1.973v25.654h8.473v1.974zM223.786 27.628V0h1.974v27.628h-1.974zM300 5.223v22.405h-1.973v-.658c0-2.164-1.106-3.947-3.289-3.947-2.184 0-3.289 1.763-3.289 3.947v.658h-1.974V5.223A5.221 5.221 0 01294.698 0a5.222 5.222 0 015.223 5.223H300zm-1.973.658c0-2.164-1.106-3.947-3.289-3.947-2.184 0-3.289 1.763-3.289 3.947v17.004c.953-1.092 1.703-1.783 3.289-1.783 1.585 0 2.308.691 3.289 1.783V5.881z" fill="#fff"/></svg></svg>